<svg width="143" height="32" viewBox="0 0 143 32" fill="none" xmlns="http://www.w3.org/2000/svg">
<path d="M27.8819 16.593C27.8819 17.4461 27.3421 17.9889 26.648 17.9889C26.0311 17.9889 25.5684 17.6787 25.5684 17.6787L24.4888 20.936C24.4888 20.936 25.5684 21.8667 27.5734 21.8667C29.8869 21.8667 31.8919 19.8502 31.8919 16.593V10.5438H27.8819V16.593Z" fill="#FBE99E"/>
<path d="M41.1465 15.9725C41.1465 17.0583 40.3753 17.8338 39.4499 17.8338C38.5245 17.8338 37.7534 17.0583 37.7534 15.9725C37.7534 14.8868 38.5245 14.1112 39.4499 14.1112C40.3753 14.1112 41.1465 14.8868 41.1465 15.9725ZM45.465 15.9725C45.465 12.7928 42.9973 10.3111 39.4499 10.3111C35.9026 10.3111 33.4348 12.7928 33.4348 15.9725C33.4348 19.1523 35.9026 21.634 39.4499 21.634C42.9973 21.634 45.465 19.1523 45.465 15.9725Z" fill="#FBE99E"/>
<path d="M51.0228 10.5438H47.0127V21.4013H51.0228V10.5438Z" fill="#FBE99E"/>
<path d="M59.5037 21.4013H63.9765V10.5438H59.9664V15.3521L57.3445 10.5438H52.8717V21.4013H56.8818V16.593L59.5037 21.4013Z" fill="#FBE99E"/>
<path d="M76.3157 15.6623C76.3157 15.6623 78.3207 15.2746 78.3207 13.4133C78.3207 11.7846 76.9326 10.3887 73.4624 10.3887C71.0718 10.3887 68.9125 10.5438 68.9125 10.5438V21.4013C68.9125 21.4013 71.0718 21.5564 73.5395 21.5564C77.3953 21.5564 78.7834 20.1605 78.7834 18.4543C78.7834 16.1277 76.3157 15.7399 76.3157 15.7399V15.6623ZM72.9225 13.1806H73.4624C74.0022 13.1806 74.3106 13.4908 74.3106 13.8786C74.3106 14.2664 74.0022 14.5766 73.4624 14.5766H72.9225V13.1806ZM73.5395 18.7645C73.231 18.7645 72.9225 18.7645 72.9225 18.7645V17.2134H73.5395C74.1564 17.2134 74.4649 17.5236 74.4649 17.9889C74.4649 18.4543 74.1564 18.7645 73.5395 18.7645Z" fill="#FBE99E"/>
<path d="M84.1887 10.5438H80.1787V21.4013H84.1887V10.5438Z" fill="#FBE99E"/>
<path d="M85.4208 10.5438V14.1112H88.3512V21.4013H92.3612V14.1112H95.2917V10.5438H85.4208Z" fill="#FBE99E"/>
<path d="M95.911 15.9725C95.911 19.1523 98.3787 21.634 101.618 21.634C104.548 21.634 105.936 19.9278 105.936 19.9278L104.085 16.9807C104.085 16.9807 103.16 17.8338 102.08 17.8338C101.001 17.8338 100.229 17.0583 100.229 15.9725C100.229 14.8868 101.001 14.1112 102.08 14.1112C103.16 14.1112 104.085 14.9643 104.085 14.9643L105.936 12.0173C105.936 12.0173 104.548 10.3111 101.618 10.3111C98.3787 10.3111 95.911 12.7928 95.911 15.9725Z" fill="#FBE99E"/>
<path d="M114.271 15.9725C114.271 17.0583 113.5 17.8338 112.575 17.8338C111.649 17.8338 110.878 17.0583 110.878 15.9725C110.878 14.8868 111.649 14.1112 112.575 14.1112C113.5 14.1112 114.271 14.8868 114.271 15.9725ZM118.59 15.9725C118.59 12.7928 116.122 10.3111 112.575 10.3111C109.027 10.3111 106.56 12.7928 106.56 15.9725C106.56 19.1523 109.027 21.634 112.575 21.634C116.122 21.634 118.59 19.1523 118.59 15.9725Z" fill="#FBE99E"/>
<path d="M124.148 10.5438H120.138V21.4013H124.148V10.5438Z" fill="#FBE99E"/>
<path d="M132.629 21.4013H137.101V10.5438H133.091V15.3521L130.469 10.5438H125.997V21.4013H130.007V16.593L132.629 21.4013Z" fill="#FBE99E"/>
<g clip-path="url(#clip0)">
<path d="M20.7067 12.4273C21.1074 13.2374 21.3478 14.0821 21.446 14.923C21.5365 15.7334 21.4945 16.5499 21.3322 17.3274C21.3281 17.354 21.3181 17.3835 21.315 17.4121C21.0871 18.4306 20.6501 19.3997 20.029 20.2506C19.3332 21.2045 18.3942 22.0103 17.2569 22.5697C16.1197 23.1292 14.9149 23.3778 13.7245 23.3517C12.6695 23.3253 11.6353 23.0873 10.6833 22.6417C10.6597 22.6288 10.6301 22.6188 10.6055 22.6038C9.8792 22.2561 9.20687 21.7982 8.62307 21.2305C8.00879 20.6361 7.48794 19.9367 7.08725 19.1266C6.95727 18.8638 6.84409 18.6001 6.74671 18.3385C6.73311 18.2961 6.71258 18.2546 6.70096 18.2112C6.60075 17.9239 6.52427 17.6348 6.45962 17.3497C6.27834 16.5251 6.24539 15.6766 6.3486 14.8643C6.43748 14.1426 6.62898 13.4441 6.91712 12.7816C7.61841 11.1764 8.85389 9.81453 10.538 8.98613C12.2221 8.15773 14.0576 8.00899 15.7468 8.43585C16.4473 8.61205 17.1246 8.89059 17.75 9.25358C18.463 9.67419 19.1142 10.2088 19.666 10.8512C19.8604 11.0749 20.0379 11.3143 20.2045 11.5664C20.23 11.603 20.2505 11.6445 20.278 11.6801C20.4358 11.9145 20.5767 12.1645 20.7067 12.4273Z" fill="#93ECE9"/>
<path opacity="0.1" d="M19.6691 10.8571L6.46968 17.3498C6.28841 16.5252 6.25546 15.6767 6.35866 14.8644C6.44754 14.1427 6.63905 13.4442 6.92719 12.7816C7.6186 11.1764 8.85408 9.81456 10.5382 8.98616C12.2223 8.15776 14.0578 8.00903 15.747 8.43589C16.4475 8.61208 17.1248 8.89062 17.7502 9.25361C18.4692 9.6713 19.1144 10.2088 19.6691 10.8571Z" fill="black"/>
<path opacity="0.2" d="M21.4462 14.923C21.5367 15.7334 21.4947 16.55 21.3324 17.3275C21.3283 17.354 21.3183 17.3835 21.3152 17.4121C21.0874 18.4306 20.6503 19.3997 20.0292 20.2506C19.3334 21.2045 18.3944 22.0103 17.2571 22.5698C16.1199 23.1292 14.9151 23.3779 13.7247 23.3517C12.6697 23.3254 11.6355 23.0873 10.6835 22.6417C10.6599 22.6288 10.6303 22.6188 10.6057 22.6039C9.87942 22.2561 9.20709 21.7983 8.62329 21.2306L21.4462 14.923Z" fill="black"/>
<path opacity="0.08" d="M21.3244 17.3313C21.3203 17.3579 21.3103 17.3874 21.3071 17.416C21.0793 18.4345 20.6423 19.4036 20.0212 20.2545C19.3254 21.2084 18.3864 22.0142 17.2491 22.5736C16.1118 23.1331 14.9071 23.3817 13.7167 23.3556C12.6616 23.3293 11.6275 23.0912 10.6755 22.6456C10.6519 22.6327 10.6223 22.6227 10.5977 22.6078L21.3244 17.3313Z" fill="black"/>
<path opacity="0.15" d="M20.0281 20.2486C19.3323 21.2026 18.3933 22.0084 17.256 22.5678C16.1188 23.1272 14.914 23.3759 13.7236 23.3498L20.0281 20.2486Z" fill="black"/>
<path opacity="0.07" d="M15.7471 8.4359L6.93029 12.7728C7.61869 11.1765 8.85417 9.81458 10.5383 8.98618C12.2224 8.15778 14.0638 8.00612 15.7471 8.4359Z" fill="black"/>
<path d="M24.1449 10.9965C24.5379 11.776 23.4474 13.1919 21.4222 14.7751C19.8506 16.0002 17.7192 17.3336 15.2821 18.5422C12.8401 19.7606 10.4917 20.6554 8.56722 21.1672C6.07681 21.8297 4.2924 21.8427 3.89944 21.0632C3.51626 20.3035 4.54429 18.9356 6.47627 17.3981C6.5428 17.702 6.63109 18 6.73814 18.3011C6.3714 18.7001 6.21851 19.0185 6.3182 19.22C6.41495 19.4156 6.74454 19.4893 7.25167 19.4389C8.64935 19.3213 11.4161 18.3558 14.4327 16.8548C17.4493 15.3537 19.8925 13.7343 20.822 12.69C21.1649 12.3125 21.3009 12.0098 21.2041 11.8142C21.1045 11.6127 20.7531 11.5497 20.2143 11.5961C20.0409 11.3301 19.8506 11.0798 19.6474 10.8432C22.0515 10.2305 23.7617 10.2368 24.1449 10.9965Z" fill="#FBE99E"/>
</g>
<defs>
<clipPath id="clip0">
<rect width="22.6101" height="16.9289" fill="white" transform="matrix(0.897318 -0.441385 0.443363 0.896342 0 13.1798)"/>
</clipPath>
</defs>
</svg>
